<?xml version="1.0" encoding="iso-8859-1"?>
<!-- Generator: Adobe Illustrator 19.0.0, SVG Export Plug-In . SVG Version: 6.00 Build 0)  -->
<svg xmlns="http://www.w3.org/2000/svg" xmlns:xlink="http://www.w3.org/1999/xlink" version="1.1" id="Capa_1" x="0px" y="0px" viewBox="0 0 512 512" style="enable-background:new 0 0 512 512;" xml:space="preserve" width="512px" height="512px">
<g>
	<g>
		<path d="M319.873,0c-20.965,0-38.02,17.055-38.02,38.02c0,20.965,17.055,38.02,38.02,38.02c20.965,0,38.02-17.055,38.02-38.02    C357.893,17.055,340.838,0,319.873,0z M319.873,60.832c-12.579,0-22.812-10.234-22.812-22.812    c0-12.578,10.233-22.812,22.812-22.812s22.812,10.234,22.812,22.812C342.685,50.598,332.452,60.832,319.873,60.832z" fill="#00c5cd"/>
	</g>
</g>
<g>
	<g>
		<path d="M85.671,342.685c-37.736,0-68.436,30.7-68.436,68.436c0,37.736,30.7,68.436,68.436,68.436    c37.736,0,68.436-30.7,68.436-68.436C154.107,373.385,123.407,342.685,85.671,342.685z M85.671,464.349    c-29.35,0-53.228-23.878-53.228-53.228c0-29.349,23.877-53.228,53.228-53.228s53.228,23.878,53.228,53.228    C138.899,440.47,115.022,464.349,85.671,464.349z" fill="#00c5cd"/>
	</g>
</g>
<g>
	<g>
		<path d="M347.248,415.683c-26.554,0-48.158,21.604-48.158,48.158c0,26.554,21.604,48.158,48.158,48.158    c26.554,0,48.158-21.604,48.158-48.158C395.406,437.288,373.802,415.683,347.248,415.683z M347.248,496.792    c-18.168,0-32.951-14.781-32.951-32.951c0-18.169,14.782-32.951,32.951-32.951c18.168,0,32.951,14.781,32.951,32.951    C380.198,482.011,365.416,496.792,347.248,496.792z" fill="#00c5cd"/>
	</g>
</g>
<g>
	<g>
		<path d="M468.911,291.992c-20.965,0-38.02,17.055-38.02,38.02c0,20.965,17.055,38.02,38.02,38.02    c20.965,0,38.02-17.055,38.02-38.02C506.931,309.047,489.876,291.992,468.911,291.992z M468.911,352.824    c-12.579,0-22.812-10.234-22.812-22.812c0-12.578,10.233-22.812,22.812-22.812s22.812,10.234,22.812,22.812    C491.723,342.59,481.49,352.824,468.911,352.824z" fill="#00c5cd"/>
	</g>
</g>
<g>
	<g>
		<path d="M150.558,4.055c-26.554,0-48.158,21.604-48.158,48.158c0,26.554,21.604,48.158,48.158,48.158    c26.554,0,48.158-21.604,48.158-48.158C198.717,25.66,177.112,4.055,150.558,4.055z M150.558,85.164    c-18.168,0-32.951-14.781-32.951-32.951s14.782-32.951,32.951-32.951s32.951,14.781,32.951,32.951S168.727,85.164,150.558,85.164z    " fill="#00c5cd"/>
	</g>
</g>
<g>
	<g>
		<path d="M43.089,129.774c-20.965,0-38.02,17.055-38.02,38.02s17.055,38.02,38.02,38.02s38.02-17.055,38.02-38.02    S64.054,129.774,43.089,129.774z M43.089,190.606c-12.579,0-22.812-10.234-22.812-22.812c0-12.578,10.233-22.812,22.812-22.812    s22.812,10.234,22.812,22.812C65.901,180.372,55.668,190.606,43.089,190.606z" fill="#00c5cd"/>
	</g>
</g>
<g>
	<g>
		<path d="M438.021,375.94c-11.24,17.304-24.831,32.944-40.398,46.489l9.982,11.473c16.635-14.473,31.16-31.188,43.169-49.678    L438.021,375.94z" fill="#00c5cd"/>
	</g>
</g>
<g>
	<g>
		<path d="M282.894,474.485c-9.924,1.346-19.995,2.03-29.935,2.03c-33.092,0-64.92-7.158-94.599-21.274l-6.532,13.733    c31.736,15.095,65.762,22.749,101.132,22.749c10.621,0,21.381-0.73,31.981-2.169L282.894,474.485z" fill="#00c5cd"/>
	</g>
</g>
<g>
	<g>
		<path d="M32.444,256c0-11.235,0.853-22.52,2.535-33.542l-15.035-2.293C18.147,231.943,17.236,244,17.236,256    c0,29.203,5.291,57.73,15.727,84.79l14.189-5.473C37.392,310.01,32.444,283.325,32.444,256z" fill="#00c5cd"/>
	</g>
</g>
<g>
	<g>
		<path d="M91.358,84.405c-9.858,9.286-18.956,19.458-27.044,30.233l12.163,9.129c7.567-10.082,16.082-19.601,25.308-28.293    L91.358,84.405z" fill="#00c5cd"/>
	</g>
</g>
<g>
	<g>
		<path d="M252.958,20.277c-13.812,0-27.68,1.211-41.22,3.599l2.641,14.976c12.67-2.235,25.65-3.367,38.578-3.367    c3.819,0,7.736,0.103,11.642,0.306l0.788-15.188C261.221,20.387,257.039,20.277,252.958,20.277z" fill="#00c5cd"/>
	</g>
</g>
<g>
	<g>
		<path d="M374.752,54.145l-7.869,13.014c27.134,16.406,50.892,38.96,68.704,65.222l12.586-8.537    C429.138,95.779,403.749,71.678,374.752,54.145z" fill="#00c5cd"/>
	</g>
</g>
<g>
	<g>
		<path d="M487.404,231.374l-15.127,1.57c0.794,7.641,1.196,15.399,1.196,23.055c0,6.134-0.271,12.448-0.803,18.772l15.154,1.276    c0.569-6.745,0.857-13.49,0.857-20.048C488.681,247.821,488.251,239.535,487.404,231.374z" fill="#00c5cd"/>
	</g>
</g>
<g>
	<g>
		<path d="M466.883,139.913c-20.965,0-38.02,17.055-38.02,38.02s17.055,38.02,38.02,38.02s38.02-17.055,38.02-38.02    S487.848,139.913,466.883,139.913z M466.883,200.745c-12.579,0-22.812-10.234-22.812-22.812s10.233-22.812,22.812-22.812    s22.812,10.234,22.812,22.812S479.462,200.745,466.883,200.745z" fill="#00c5cd"/>
	</g>
</g>
<g>
	<g>
		
			<rect x="219.482" y="378.594" transform="matrix(0.1946 -0.9809 0.9809 0.1946 -244.8238 573.9448)" width="15.208" height="114.923" fill="#00c5cd"/>
	</g>
</g>
<g>
	<g>
		<path d="M418.595,303.47l9.831-11.602l-52.972-44.888l49.504-31.078l-8.087-12.879l-53.59,33.643l-22.339-18.93l-8.098-124.702    l-15.177,0.987l7.147,110.05l-62.135-52.652l37.878-59.878l-12.853-8.131l-36.741,58.081l-52.907-44.832l-9.831,11.602    l54.531,46.207l-49.21,77.792l-61.911-22.6l15.413-91.201l-14.995-2.535l-14.944,88.432l-27.103-9.893l-5.216,14.285    l29.742,10.856L96.606,325.662l14.995,2.535l17.456-103.288l56.169,20.504l-57.294,90.571l12.853,8.131l59.061-93.365    l89.16,32.547l-130.708,82.057l8.087,12.879l140.701-88.33l23.873,8.753l6.482,99.82l15.176-0.987l-6.047-93.11l64.703,23.72    l5.235-14.279l-71.014-26.033l-1.373-21.133l17.822-11.191L418.595,303.47z M305.312,273.06l-97.147-35.463l46.306-73.201    l71.714,60.769l2.171,33.428L305.312,273.06z M323.373,279.677l6.103-3.831l0.404,6.217L323.373,279.677z M342.998,249.4    l-0.686-10.568l7.457,6.318L342.998,249.4z" fill="#00c5cd"/>
	</g>
</g>
<g>
</g>
<g>
</g>
<g>
</g>
<g>
</g>
<g>
</g>
<g>
</g>
<g>
</g>
<g>
</g>
<g>
</g>
<g>
</g>
<g>
</g>
<g>
</g>
<g>
</g>
<g>
</g>
<g>
</g>
</svg>
