<?xml version="1.0" encoding="iso-8859-1"?>
<!-- Generator: Adobe Illustrator 19.0.0, SVG Export Plug-In . SVG Version: 6.00 Build 0)  -->
<svg xmlns="http://www.w3.org/2000/svg" xmlns:xlink="http://www.w3.org/1999/xlink" version="1.1" id="Capa_1" x="0px" y="0px" viewBox="0 0 480 480" style="enable-background:new 0 0 480 480;" xml:space="preserve" width="512px" height="512px">
<g>
	<g>
		<path d="M448,376c-5.648,0-11.168,1.536-16,4.36V344c0-4.424-3.584-8-8-8h-52.36c2.824-4.832,4.36-10.352,4.36-16    c0-17.648-14.352-32-32-32s-32,14.352-32,32c0,5.648,1.536,11.168,4.36,16H264c-4.416,0-8,3.576-8,8v36.36    c-4.832-2.824-10.352-4.36-16-4.36c-17.648,0-32,14.352-32,32s14.352,32,32,32c5.648,0,11.168-1.536,16-4.36V472    c0,4.424,3.584,8,8,8h160c4.416,0,8-3.576,8-8v-36.36c4.832,2.824,10.352,4.36,16,4.36c17.648,0,32-14.352,32-32    S465.648,376,448,376z M448,424c-4.512,0-8.72-1.896-11.832-5.36c-1.512-1.68-3.672-2.64-5.944-2.64H424c-4.416,0-8,3.576-8,8v40    H272v-40c0-4.424-3.584-8-8-8h-6.224c-2.264,0-4.424,0.96-5.944,2.64c-3.112,3.464-7.32,5.36-11.832,5.36c-8.824,0-16-7.176-16-16    c0-8.824,7.176-16,16-16c4.512,0,8.72,1.896,11.832,5.36c1.512,1.68,3.672,2.64,5.944,2.64H264c4.416,0,8-3.576,8-8v-40h56    c4.416,0,8-3.576,8-8v-6.224c0-2.264-0.96-4.424-2.64-5.936c-3.456-3.12-5.36-7.328-5.36-11.84c0-8.824,7.176-16,16-16    c8.824,0,16,7.176,16,16c0,4.512-1.904,8.72-5.36,11.832c-1.68,1.52-2.64,3.672-2.64,5.944V344c0,4.424,3.584,8,8,8h56v40    c0,4.424,3.584,8,8,8h6.224c2.264,0,4.424-0.96,5.944-2.64c3.112-3.464,7.32-5.36,11.832-5.36c8.824,0,16,7.176,16,16    C464,416.824,456.824,424,448,424z" fill="#00c5cd"/>
	</g>
</g>
<g>
	<g>
		<path d="M472,0H8C3.584,0,0,3.576,0,8v248c0,4.424,3.584,8,8,8h152c4.416,0,8-3.576,8-8v-48c0-4.424-3.584-8-8-8h-6.224    c-2.264,0-4.424,0.96-5.944,2.64c-3.112,3.464-7.32,5.36-11.832,5.36c-8.824,0-16-7.176-16-16c0-8.824,7.176-16,16-16    c4.512,0,8.72,1.896,11.832,5.36c1.512,1.68,3.672,2.64,5.944,2.64H160c4.416,0,8-3.576,8-8v-40h56c4.416,0,8-3.576,8-8v-6.224    c0-2.264-0.96-4.424-2.64-5.936c-3.456-3.12-5.36-7.328-5.36-11.84c0-8.824,7.176-16,16-16c8.824,0,16,7.176,16,16    c0,4.512-1.904,8.72-5.36,11.832c-1.68,1.52-2.64,3.672-2.64,5.944V128c0,4.424,3.584,8,8,8h56v40c0,4.424,3.584,8,8,8h6.224    c2.264,0,4.424-0.96,5.944-2.64c3.112-3.464,7.32-5.36,11.832-5.36c8.824,0,16,7.176,16,16c0,8.824-7.176,16-16,16    c-4.512,0-8.72-1.896-11.832-5.36c-1.512-1.68-3.672-2.64-5.944-2.64H320c-4.416,0-8,3.576-8,8v48c0,4.424,3.584,8,8,8h152    c4.416,0,8-3.576,8-8V8C480,3.576,476.416,0,472,0z M464,248H328v-28.36c4.832,2.824,10.352,4.36,16,4.36    c17.648,0,32-14.352,32-32s-14.352-32-32-32c-5.648,0-11.168,1.536-16,4.36V128c0-4.424-3.584-8-8-8h-52.36    c2.824-4.832,4.36-10.352,4.36-16c0-17.648-14.352-32-32-32s-32,14.352-32,32c0,5.648,1.536,11.168,4.36,16H160    c-4.416,0-8,3.576-8,8v36.36c-4.832-2.824-10.352-4.36-16-4.36c-17.648,0-32,14.352-32,32s14.352,32,32,32    c5.648,0,11.168-1.536,16-4.36V248H16V16h448V248z" fill="#00c5cd"/>
	</g>
</g>
<g>
	<g>
		<path d="M237.656,162.344c-3.128-3.128-8.184-3.128-11.312,0l-32,32l11.312,11.312L224,187.312V264h16v-76.688l18.344,18.344    l11.312-11.312L237.656,162.344z" fill="#00c5cd"/>
	</g>
</g>
<g>
	<g>
		<rect x="224" y="280" width="16" height="16" fill="#00c5cd"/>
	</g>
</g>
<g>
	<g>
		<rect x="224" y="312" width="16" height="16" fill="#00c5cd"/>
	</g>
</g>
<g>
	<g>
		<rect x="224" y="344" width="16" height="16" fill="#00c5cd"/>
	</g>
</g>
<g>
	<g>
		<rect x="48" y="280" width="16" height="16" fill="#00c5cd"/>
	</g>
</g>
<g>
	<g>
		<rect x="48" y="312" width="16" height="16" fill="#00c5cd"/>
	</g>
</g>
<g>
	<g>
		<rect x="48" y="344" width="16" height="16" fill="#00c5cd"/>
	</g>
</g>
<g>
	<g>
		<rect x="48" y="376" width="16" height="16" fill="#00c5cd"/>
	</g>
</g>
<g>
	<g>
		<rect x="48" y="408" width="16" height="16" fill="#00c5cd"/>
	</g>
</g>
<g>
	<g>
		<rect x="80" y="408" width="16" height="16" fill="#00c5cd"/>
	</g>
</g>
<g>
	<g>
		<rect x="112" y="408" width="16" height="16" fill="#00c5cd"/>
	</g>
</g>
<g>
	<g>
		<rect x="144" y="408" width="16" height="16" fill="#00c5cd"/>
	</g>
</g>
<g>
	<g>
		<rect x="176" y="408" width="16" height="16" fill="#00c5cd"/>
	</g>
</g>
<g>
</g>
<g>
</g>
<g>
</g>
<g>
</g>
<g>
</g>
<g>
</g>
<g>
</g>
<g>
</g>
<g>
</g>
<g>
</g>
<g>
</g>
<g>
</g>
<g>
</g>
<g>
</g>
<g>
</g>
</svg>
