<?xml version="1.0" encoding="iso-8859-1"?>
<!-- Generator: Adobe Illustrator 19.0.0, SVG Export Plug-In . SVG Version: 6.00 Build 0)  -->
<svg xmlns="http://www.w3.org/2000/svg" xmlns:xlink="http://www.w3.org/1999/xlink" version="1.1" id="Capa_1" x="0px" y="0px" viewBox="0 0 496.004 496.004" style="enable-background:new 0 0 496.004 496.004;" xml:space="preserve" width="512px" height="512px">
<g>
	<g>
		<g>
			<path d="M160.002,264.004c-13.232,0-24-10.768-24-24h-16c0,22.056,17.944,40,40,40c22.056,0,40-17.944,40-40h-16     C184.002,253.236,173.234,264.004,160.002,264.004z" fill="#432d61"/>
			<path d="M336.002,280.004c22.056,0,40-17.944,40-40h-16c0,13.232-10.768,24-24,24s-24-10.768-24-24h-16     C296.002,262.06,313.946,280.004,336.002,280.004z" fill="#432d61"/>
			<path d="M432.002,184.645v-8.64c0-31.488-86.056-45.336-159.752-47.616l-0.496,15.992     c94.704,2.936,144.248,22.152,144.248,31.624c0,10.856-59.296,32-168,32s-168-21.144-168-32     c0-9.472,49.544-28.688,144.248-31.624l-0.496-15.992c-73.696,2.28-159.752,16.128-159.752,47.616v8.64     c-27.096,3.904-48,27.208-48,55.36c0,28.224,21,51.568,48.184,55.392c2.776,69.656,44.416,129.48,103.816,158.28v42.328h16     v-35.496c19.944,7.416,41.504,11.496,64,11.496c22.496,0,44.056-4.08,64-11.496v35.496h16v-42.328     c59.4-28.8,101.04-88.624,103.816-158.288c27.184-3.816,48.184-27.16,48.184-55.384     C480.002,211.852,459.098,188.548,432.002,184.645z M64.002,279.197c-18.232-3.72-32-19.88-32-39.192s13.768-35.472,32-39.192     V279.197z M416.002,288.004c0,92.64-75.36,168-168,168s-168-75.36-168-168v-90.584c34.856,20.52,118.544,26.584,168,26.584     s133.144-6.064,168-26.584V288.004z M432.002,279.196v-78.384c18.232,3.72,32,19.872,32,39.192S450.234,275.476,432.002,279.196z     " fill="#432d61"/>
			<path d="M214.298,29.828c9.216-9.096,21.44-14.216,34.384-13.824c25.296,0.352,46.96,22.016,47.312,47.312     c0.312,22.64-15.464,42.632-37.504,47.536c-10.712,2.392-18.488,12.192-18.488,23.312v25.84h16v-25.84     c0-3.68,2.512-6.92,5.968-7.688c29.408-6.544,50.448-33.2,50.024-63.376c-0.472-34.312-28.776-62.616-63.088-63.096     c-17.304-0.2-33.552,6.304-45.84,18.424c-12.296,12.128-19.064,28.312-19.064,45.576h16     C200.002,51.06,205.082,38.916,214.298,29.828z" fill="#432d61"/>
			<rect x="240.002" y="176.004" width="16" height="16" fill="#432d61"/>
			<path d="M280.002,64.004c0-17.648-14.352-32-32-32s-32,14.352-32,32s14.352,32,32,32S280.002,81.652,280.002,64.004z      M232.002,64.004c0-8.824,7.176-16,16-16c8.824,0,16,7.176,16,16s-7.176,16-16,16C239.178,80.004,232.002,72.828,232.002,64.004z     " fill="#432d61"/>
		</g>
	</g>
</g>
<g>
</g>
<g>
</g>
<g>
</g>
<g>
</g>
<g>
</g>
<g>
</g>
<g>
</g>
<g>
</g>
<g>
</g>
<g>
</g>
<g>
</g>
<g>
</g>
<g>
</g>
<g>
</g>
<g>
</g>
</svg>
