<?xml version="1.0" encoding="iso-8859-1"?>
<!-- Generator: Adobe Illustrator 17.1.0, SVG Export Plug-In . SVG Version: 6.00 Build 0)  -->
<!DOCTYPE svg PUBLIC "-//W3C//DTD SVG 1.1//EN" "http://www.w3.org/Graphics/SVG/1.1/DTD/svg11.dtd">
<svg xmlns="http://www.w3.org/2000/svg" xmlns:xlink="http://www.w3.org/1999/xlink" version="1.1" id="Capa_1" x="0px" y="0px" viewBox="0 0 466.002 466.002" style="enable-background:new 0 0 466.002 466.002;" xml:space="preserve" width="512px" height="512px">
<g>
	<path d="M157.498,230.538c-0.093-0.28-0.203-0.551-0.325-0.816l-47.162-118.405c-1.212-3.043-4.157-5.04-7.432-5.04   s-6.22,1.997-7.432,5.04L47.876,229.995c-0.002,0.004-0.003,0.008-0.005,0.012L0.57,348.762c-1.635,4.105,0.367,8.758,4.472,10.393   c4.104,1.635,8.758-0.367,10.393-4.472l45.239-113.577l83.796-0.04l45.255,113.617c1.248,3.134,4.255,5.042,7.435,5.042   c0.985,0,1.987-0.183,2.958-0.57c4.104-1.635,6.106-6.288,4.472-10.393L157.498,230.538z M67.047,225.103l35.532-89.206   l35.518,89.172L67.047,225.103z" fill="#00c5cd"/>
	<path d="M458.002,343.723h-63.353v-7.437c20.083-8.924,37.258-23.118,49.907-41.306c14.03-20.175,21.446-43.873,21.446-68.531   c0-66.263-53.909-120.171-120.171-120.171S225.66,160.186,225.66,226.449c0,24.659,7.416,48.356,21.446,68.531   c12.648,18.188,29.823,32.382,49.906,41.306v7.437H233.66c-4.418,0-8,3.582-8,8s3.582,8,8,8h71.353c4.418,0,8-3.582,8-8v-20.765   c0-3.294-2.02-6.252-5.087-7.451c-40.254-15.734-66.265-53.832-66.265-97.058c0-57.44,46.731-104.171,104.171-104.171   c57.44,0,104.171,46.731,104.171,104.171c0,43.227-26.011,81.324-66.266,97.058c-3.068,1.199-5.087,4.157-5.087,7.451v20.765   c0,4.418,3.582,8,8,8h71.353c4.418,0,8-3.582,8-8S462.421,343.723,458.002,343.723z" fill="#00c5cd"/>
</g>
<g>
</g>
<g>
</g>
<g>
</g>
<g>
</g>
<g>
</g>
<g>
</g>
<g>
</g>
<g>
</g>
<g>
</g>
<g>
</g>
<g>
</g>
<g>
</g>
<g>
</g>
<g>
</g>
<g>
</g>
</svg>
