<?xml version="1.0" encoding="iso-8859-1"?>
<!-- Generator: Adobe Illustrator 19.0.0, SVG Export Plug-In . SVG Version: 6.00 Build 0)  -->
<svg xmlns="http://www.w3.org/2000/svg" xmlns:xlink="http://www.w3.org/1999/xlink" version="1.1" id="Capa_1" x="0px" y="0px" viewBox="0 0 512 512" style="enable-background:new 0 0 512 512;" xml:space="preserve" width="512px" height="512px">
<g>
	<g>
		<path d="M512,279.98c0-10.643-4.523-20.244-11.74-27c7.217-6.756,11.74-16.357,11.74-27c0-20.402-16.598-37-37-37h-27.49    c-29.807-84.237-90.306-133.813-99.177-140.744l-0.074-0.058c-3.563-2.858-8.629-2.943-12.288-0.173    c-1.597,1.207-38.429,29.403-70.358,80.954H220c-34.473,0-68.039,12.112-94.515,34.104c-0.19,0.158-0.375,0.323-0.553,0.495    l-11.84,11.421H10c-5.522,0-10,4.478-10,10v180c0,5.522,4.478,10,10,10h99c0.044,0,0.087-0.006,0.131-0.007    c5.38,6.093,11.271,11.764,17.626,16.926c26.25,21.319,59.363,33.061,93.242,33.061h51.772c2.557,2.571,5.1,4.958,7.598,7.162    c29.539,26.067,59.07,33.33,60.313,33.627c0.763,0.182,1.542,0.272,2.32,0.272s1.558-0.091,2.32-0.272    c1.243-0.297,30.774-7.56,60.313-33.627c2.528-2.231,5.101-4.645,7.689-7.251c0.46,0.065,0.926,0.11,1.404,0.11H475    c20.402,0,37-16.598,37-37c0-10.643-4.523-20.244-11.74-27c7.217-6.756,11.74-16.357,11.74-27s-4.523-20.244-11.74-27    C507.477,300.223,512,290.622,512,279.98z M332.191,77.989v50.734h-3.672c-0.737,0-1.453,0.085-2.144,0.236h-36.933    C304.845,106.202,320.819,88.971,332.191,77.989z M221.372,184.112c-5.522,0-10,4.478-10,10c0,5.522,4.478,10,10,10h110.632v89.33    l-44.53-44.53c-3.906-3.904-10.236-3.904-14.143,0c-3.905,3.905-3.905,10.237,0,14.143l58.673,58.673v120.203    c-10.141-4.268-25.208-12.111-40.11-25.436c-34.456-30.808-51.925-75.045-51.925-131.48c0-17.525,1.744-35.082,5.183-52.183    c1.089-5.415-2.418-10.687-7.832-11.775s-10.687,2.416-11.775,7.832c-3.699,18.396-5.575,37.279-5.575,56.126    c0,55.05,15.988,93.592,34.9,119.944H220c-59.535,0-112.09-42.117-124.963-100.146c-1.196-5.392-6.539-8.795-11.929-7.597    c-5.392,1.196-8.793,6.537-7.597,11.929c3.606,16.256,9.997,31.763,18.742,45.835H20v-160h97.13c2.59,0,5.079-1.005,6.942-2.803    l14.474-13.961c22.849-18.869,51.761-29.257,81.454-29.257h137.5c0.737,0,2.869-0.001,2.869-0.001    c9.757,0,17.694,7.703,17.694,17.46c0,9.757-7.938,17.694-17.694,17.694H221.372z M392.114,416.495    c-14.905,13.327-29.975,21.17-40.11,25.437v-59.898l80.087-80.087c3.905-3.905,3.905-10.237,0-14.143    c-3.906-3.904-10.236-3.904-14.143,0l-65.944,65.944V262.5c1.449-0.472,2.815-1.275,3.967-2.427l44.483-44.483    c3.905-3.905,3.905-10.237,0-14.143c-3.906-3.904-10.236-3.904-14.143,0l-34.308,34.308v-31.643h8.365    c20.785,0,37.694-16.909,37.694-37.694c0-20.785-16.909-37.695-37.694-37.695h-8.178V78.261    c10.728,10.333,25.225,25.924,39.584,46.429c34.68,49.526,52.264,103.467,52.264,160.324    C444.039,341.45,426.569,385.687,392.114,416.495z M475,404.98h-45.876c6.915-9.633,13.435-20.895,18.929-34H475    c9.374,0,17,7.626,17,17S484.374,404.98,475,404.98z M475,350.98h-19.87c3.04-10.37,5.431-21.681,6.966-34H475    c9.374,0,17,7.626,17,17S484.374,350.98,475,350.98z M475,296.98h-11.24c0.171-3.906,0.279-7.879,0.279-11.965    c0-7.508-0.305-14.847-0.855-22.035H475c9.374,0,17,7.626,17,17C492,289.354,484.374,296.98,475,296.98z M475,242.98h-14.056    c-1.749-11.823-4.183-23.161-7.164-34H475c9.374,0,17,7.626,17,17C492,235.354,484.374,242.98,475,242.98z" fill="#00c5cd"/>
	</g>
</g>
<g>
	<g>
		<path d="M174.038,347.852C149.594,332.359,135,305.857,135,276.959c0-5.522-4.478-10-10-10c-5.522,0-10,4.478-10,10    c0,35.788,18.067,68.605,48.331,87.785c1.661,1.053,3.514,1.555,5.344,1.555c3.312,0,6.553-1.644,8.456-4.647    C180.088,356.986,178.702,350.808,174.038,347.852z" fill="#00c5cd"/>
	</g>
</g>
<g>
	<g>
		<path d="M200.17,358.732c-0.042-0.009-0.153-0.034-0.194-0.043c-5.407-1.156-10.745,2.276-11.901,7.677    c-1.157,5.4,2.254,10.71,7.654,11.867c0.025,0.006,0.104,0.023,0.129,0.029c0.722,0.158,1.441,0.234,2.15,0.234    c4.576,0,8.686-3.172,9.727-7.825C208.937,365.297,205.54,359.956,200.17,358.732z" fill="#00c5cd"/>
	</g>
</g>
<g>
</g>
<g>
</g>
<g>
</g>
<g>
</g>
<g>
</g>
<g>
</g>
<g>
</g>
<g>
</g>
<g>
</g>
<g>
</g>
<g>
</g>
<g>
</g>
<g>
</g>
<g>
</g>
<g>
</g>
</svg>
